<svg width="153" height="152" viewBox="0 0 153 152" fill="none" xmlns="http://www.w3.org/2000/svg">
<path fill-rule="evenodd" clip-rule="evenodd" d="M41.0839 116.713C67.1011 112.913 85.0148 113.24 111.066 116.846C112.953 117.12 114.677 118.066 115.92 119.511C117.163 120.957 117.84 122.803 117.828 124.708C117.828 126.532 117.201 128.303 116.068 129.686C114.094 132.098 112.072 134.47 110.002 136.8H120.04C120.671 136.048 121.306 135.28 121.948 134.501C124.203 131.737 125.433 128.279 125.43 124.712C125.43 117.017 119.812 110.386 112.108 109.322C85.4405 105.632 66.8009 105.279 39.9855 109.197C32.2012 110.333 26.6063 117.067 26.6063 124.815C26.6063 128.254 27.7276 131.655 29.8523 134.41C30.4794 135.223 31.099 136.021 31.7147 136.804H41.5096C39.5842 134.499 37.7061 132.155 35.8767 129.774C34.7895 128.348 34.203 126.604 34.2081 124.811C34.2081 120.718 37.15 117.287 41.0839 116.713ZM76.0181 79.8C79.0129 79.8 81.9784 79.2103 84.7453 78.0645C87.5122 76.9186 90.0262 75.2392 92.1439 73.122C94.2616 71.0049 95.9414 68.4914 97.0875 65.7252C98.2336 62.959 98.8235 59.9941 98.8235 57C98.8235 54.0059 98.2336 51.041 97.0875 48.2748C95.9414 45.5086 94.2616 42.9951 92.1439 40.878C90.0262 38.7608 87.5122 37.0814 84.7453 35.9355C81.9784 34.7897 79.0129 34.2 76.0181 34.2C69.9697 34.2 64.169 36.6021 59.8922 40.878C55.6153 45.1538 53.2126 50.9531 53.2126 57C53.2126 63.0469 55.6153 68.8462 59.8922 73.122C64.169 77.3979 69.9697 79.8 76.0181 79.8ZM76.0181 87.4C84.0826 87.4 91.8167 84.1972 97.5192 78.496C103.222 72.7949 106.425 65.0626 106.425 57C106.425 48.9374 103.222 41.2051 97.5192 35.504C91.8167 29.8028 84.0826 26.6 76.0181 26.6C67.9536 26.6 60.2193 29.8028 54.5169 35.504C48.8144 41.2051 45.6108 48.9374 45.6108 57C45.6108 65.0626 48.8144 72.7949 54.5169 78.496C60.2193 84.1972 67.9536 87.4 76.0181 87.4Z" fill="#0085FF"/>
<path fill-rule="evenodd" clip-rule="evenodd" d="M76.0181 144.4C113.803 144.4 144.434 113.776 144.434 76C144.434 38.2242 113.803 7.6 76.0181 7.6C38.2333 7.6 7.60181 38.2242 7.60181 76C7.60181 113.776 38.2333 144.4 76.0181 144.4ZM76.0181 152C118.003 152 152.036 117.975 152.036 76C152.036 34.0252 118.003 0 76.0181 0C34.0333 0 0 34.0252 0 76C0 117.975 34.0333 152 76.0181 152Z" fill="#0085FF"/>
</svg>
